# xmcd
#
# Track frame offsets:
#	182
#	18392
#	36370
#	55120
#	72220
#
# Disc length: 1260 seconds
#
# Revision: 0
# Processed by: cddbd v1.4PL0 Copyright (c) Steve Scherf et al.
# Submitted via: audiograbber 1.82.02
#
DISCID=3c04ea05
DTITLE=Remedy Stone - Signs
DYEAR=1900
DGENRE=
TTITLE0=Signs
TTITLE1=Heaven
TTITLE2=The Bealer
TTITLE3=Mother Mary
TTITLE4=Save Me
EXTD=
EXTT0=
EXTT1=
EXTT2=
EXTT3=
EXTT4=
PLAYORDER=
